<svg width="24" height="24" viewBox="0 0 24 24" fill="none" xmlns="http://www.w3.org/2000/svg">
<path d="M14 2.5L14 4.80003C14 5.92014 14 6.48019 14.218 6.90801C14.4097 7.28434 14.7157 7.5903 15.092 7.78204C15.5198 8.00003 16.0799 8.00003 17.2 8.00003L19.5 8.00003M20 10.3137L20 14C20 16.8003 20 18.2004 19.455 19.27C18.9757 20.2108 18.2108 20.9757 17.27 21.455C16.2004 22 14.8003 22 12 22C9.19974 22 7.79961 22 6.73005 21.455C5.78924 20.9757 5.02434 20.2108 4.54497 19.27C4 18.2004 4 16.8003 4 14L4 9.77817C4 7.18697 4 5.89136 4.4686 4.88663C4.96537 3.82147 5.82148 2.96536 6.88663 2.46859C7.89137 2 9.18697 2 11.7782 2C12.9105 2 13.4766 2 14.0113 2.11856C14.5806 2.24479 15.1235 2.46965 15.6153 2.78296C16.0772 3.07721 16.4775 3.47753 17.2782 4.27817L17.6569 4.65686C18.5216 5.52162 18.954 5.95399 19.2632 6.45858C19.5373 6.90594 19.7394 7.39366 19.8619 7.90384C20 8.47928 20 9.09076 20 10.3137Z" stroke="#A1A1AA" stroke-width="1.5" stroke-linecap="round" stroke-linejoin="round"/>
</svg>
