<svg width="160" height="32" viewBox="0 0 160 32" fill="none" xmlns="http://www.w3.org/2000/svg">
<path fill-rule="evenodd" clip-rule="evenodd" d="M23.6667 32H11.6667V6C11.6667 2.68629 14.353 0 17.6667 0C20.9804 0 23.6667 2.68629 23.6667 6V32ZM21.6667 30L21.6667 6C21.6667 3.79086 19.8758 2 17.6667 2C15.4575 2 13.6667 3.79086 13.6667 6L13.6667 30H21.6667Z" fill="#00FF87"/>
<path d="M52.8447 17.9V14.15H61.0347V17.9H52.8447ZM53.9247 26H49.9947V5.56996H62.6247V9.31996H52.6647L53.9247 7.78996V26Z" fill="white"/>
<path d="M69.0642 26H65.1342V11.33H69.0642V26ZM64.7142 6.76996C64.7142 6.04996 64.9242 5.46996 65.3442 5.02996C65.7842 4.56996 66.3642 4.33996 67.0842 4.33996C67.8042 4.33996 68.3742 4.56996 68.7942 5.02996C69.2342 5.46996 69.4542 6.04996 69.4542 6.76996C69.4542 7.44996 69.2342 8.00996 68.7942 8.44996C68.3742 8.88996 67.8042 9.10996 67.0842 9.10996C66.3642 9.10996 65.7842 8.88996 65.3442 8.44996C64.9242 8.00996 64.7142 7.44996 64.7142 6.76996Z" fill="white"/>
<path d="M76.1163 26.15C75.4563 26.15 74.8463 26.01 74.2863 25.73C73.7463 25.45 73.3063 25.02 72.9663 24.44C72.6463 23.84 72.4863 23.07 72.4863 22.13V5.56996H76.3863V20.75C76.3863 21.45 76.5263 21.91 76.8063 22.13C77.0863 22.33 77.4263 22.43 77.8263 22.43V25.94C77.6063 26.02 77.3363 26.07 77.0163 26.09C76.7163 26.13 76.4163 26.15 76.1163 26.15Z" fill="white"/>
<path d="M80.3671 26V11.33H83.3071L84.1171 14.15L82.8571 14.09C83.3771 13.49 83.9471 12.96 84.5671 12.5C85.1871 12.04 85.8571 11.68 86.5771 11.42C87.3171 11.14 88.0871 11 88.8871 11C89.8871 11 90.6871 11.17 91.2871 11.51C91.8871 11.85 92.3271 12.31 92.6071 12.89C92.9071 13.47 93.1071 14.13 93.2071 14.87C93.3271 15.59 93.3871 16.34 93.3871 17.12V26H89.4571V17.09C89.4571 16.19 89.2771 15.59 88.9171 15.29C88.5571 14.99 88.1271 14.84 87.6271 14.84C86.9071 14.84 86.2071 15.06 85.5271 15.5C84.8471 15.92 84.2771 16.46 83.8171 17.12L83.3071 15.08H84.2971V26H80.3671ZM98.5171 26V17.09C98.5171 16.19 98.3371 15.59 97.9771 15.29C97.6371 14.99 97.2171 14.84 96.7171 14.84C95.9971 14.84 95.2971 15.06 94.6171 15.5C93.9371 15.92 93.3671 16.46 92.9071 17.12L91.9171 14.09C92.4371 13.49 93.0071 12.96 93.6271 12.5C94.2671 12.04 94.9471 11.68 95.6671 11.42C96.4071 11.14 97.1771 11 97.9771 11C98.9571 11 99.7471 11.17 100.347 11.51C100.947 11.85 101.397 12.31 101.697 12.89C101.997 13.47 102.197 14.13 102.297 14.87C102.417 15.59 102.477 16.34 102.477 17.12V26H98.5171Z" fill="white"/>
<path d="M108.59 11.33L109.58 15.38V26H105.65V11.33H108.59ZM108.77 17.39L108.05 17.06V14.06L108.32 13.73C108.54 13.37 108.87 12.98 109.31 12.56C109.77 12.14 110.29 11.78 110.87 11.48C111.47 11.16 112.09 11 112.73 11C113.05 11 113.34 11.02 113.6 11.06C113.86 11.1 114.06 11.17 114.2 11.27V14.84H113.24C111.94 14.84 110.94 15.05 110.24 15.47C109.54 15.87 109.05 16.51 108.77 17.39Z" fill="white"/>
<path d="M121.233 26.36C120.133 26.36 119.253 26.19 118.593 25.85C117.933 25.51 117.423 25.06 117.063 24.5C116.723 23.92 116.493 23.26 116.373 22.52C116.253 21.78 116.193 21.01 116.193 20.21V11.33H120.123V20.24C120.123 21.14 120.313 21.74 120.693 22.04C121.093 22.34 121.563 22.49 122.103 22.49C122.603 22.49 123.103 22.4 123.603 22.22C124.103 22.04 124.573 21.78 125.013 21.44C125.473 21.08 125.853 20.67 126.153 20.21L126.633 22.28H125.673V11.33H129.603V26H126.663L125.853 23.21L127.113 23.24C126.613 23.82 126.043 24.35 125.403 24.83C124.783 25.31 124.113 25.69 123.393 25.97C122.693 26.23 121.973 26.36 121.233 26.36Z" fill="white"/>
<path d="M137.997 26.39C136.877 26.39 135.807 26.16 134.787 25.7C133.787 25.24 132.897 24.44 132.117 23.3L134.517 21.2C135.157 21.92 135.767 22.44 136.347 22.76C136.947 23.06 137.617 23.21 138.357 23.21C138.857 23.21 139.257 23.09 139.557 22.85C139.857 22.61 140.007 22.31 140.007 21.95C140.007 21.71 139.927 21.5 139.767 21.32C139.607 21.12 139.307 20.93 138.867 20.75C138.447 20.57 137.827 20.38 137.007 20.18C135.487 19.78 134.347 19.24 133.587 18.56C132.827 17.86 132.447 16.88 132.447 15.62C132.447 14.76 132.667 13.98 133.107 13.28C133.547 12.56 134.177 11.99 134.997 11.57C135.837 11.15 136.827 10.94 137.967 10.94C139.307 10.94 140.447 11.2 141.387 11.72C142.347 12.24 143.117 12.87 143.697 13.61L141.147 15.74C140.767 15.34 140.277 14.99 139.677 14.69C139.077 14.39 138.377 14.24 137.577 14.24C137.137 14.24 136.747 14.34 136.407 14.54C136.067 14.74 135.897 15.03 135.897 15.41C135.897 15.77 136.077 16.07 136.437 16.31C136.817 16.55 137.537 16.8 138.597 17.06C140.397 17.48 141.687 18.05 142.467 18.77C143.247 19.49 143.637 20.45 143.637 21.65C143.637 22.61 143.387 23.45 142.887 24.17C142.387 24.87 141.707 25.42 140.847 25.82C140.007 26.2 139.057 26.39 137.997 26.39Z" fill="white"/>
<path d="M146.227 26V5.56996H150.156V26H146.227ZM155.676 26V17.09C155.676 16.19 155.496 15.59 155.136 15.29C154.796 14.99 154.356 14.84 153.816 14.84C153.316 14.84 152.807 14.94 152.286 15.14C151.766 15.32 151.276 15.59 150.816 15.95C150.376 16.29 149.997 16.68 149.676 17.12L148.716 14.09C149.236 13.49 149.826 12.96 150.486 12.5C151.166 12.04 151.887 11.68 152.646 11.42C153.406 11.14 154.206 11 155.046 11C156.046 11 156.846 11.17 157.446 11.51C158.066 11.85 158.527 12.31 158.826 12.89C159.146 13.47 159.356 14.13 159.456 14.87C159.557 15.59 159.607 16.34 159.607 17.12V26H155.676Z" fill="white"/>
<path fill-rule="evenodd" clip-rule="evenodd" d="M27.3334 15.1216C27.3334 12.5523 27.3355 10.7069 27.451 9.25859C27.5654 7.82635 27.7845 6.90182 28.1571 6.15337C28.8815 4.69849 30.038 3.51505 31.4597 2.77376C32.1911 2.39249 33.0946 2.16826 34.4942 2.05124C34.7595 2.02907 35.0387 2.01462 35.3334 1.99992L35.3334 16.1501L27.3334 16.1501L27.3334 15.1216ZM27.3334 17.8498L27.3334 18.8783C27.3334 21.4476 27.3355 23.293 27.451 24.7412C27.5654 26.1735 27.7845 27.098 28.1571 27.8465C28.8815 29.3013 30.038 30.4848 31.4597 31.2261C32.1911 31.6074 33.0946 31.8316 34.4942 31.9486C34.7595 31.9708 35.0387 31.9852 35.3334 31.9999L35.3334 17.8498H27.3334Z" fill="#00FF87"/>
<path fill-rule="evenodd" clip-rule="evenodd" d="M7.88232 9.25859C7.9979 10.7069 8 12.5523 8 15.1216V16.1501H5.29819e-07L0 1.99992C0.294704 2.01462 0.573821 2.02907 0.839161 2.05124C2.23878 2.16826 3.14225 2.39249 3.87364 2.77375C5.29538 3.51505 6.45186 4.69849 7.17627 6.15337C7.54885 6.90182 7.76797 7.82635 7.88232 9.25859Z" fill="#00FF87"/>
<path d="M7.88232 24.7412C7.9979 23.293 8 21.4476 8 18.8783V17.8498H1.35407e-06L1.88389e-06 31.9999C0.294706 31.9852 0.573823 31.9708 0.839163 31.9486C2.23878 31.8316 3.14225 31.6074 3.87364 31.2261C5.29538 30.4848 6.45186 29.3013 7.17627 27.8465C7.54885 27.098 7.76797 26.1735 7.88232 24.7412Z" fill="#00FF87"/>
<path d="M5.29819e-07 16.1501L1.35407e-06 17.8498H8V16.1501H5.29819e-07Z" fill="#00FF87"/>
<path d="M35.3334 17.8498L35.3334 16.1501L27.3334 16.1501L27.3334 17.8498H35.3334Z" fill="#00FF87"/>
</svg>
