<svg width="24" height="24" viewBox="0 0 24 24" fill="none" xmlns="http://www.w3.org/2000/svg">
<path d="M12 1.25C17.9371 1.25 22.75 6.06294 22.75 12C22.75 17.9371 17.9371 22.75 12 22.75C6.06294 22.75 1.25 17.9371 1.25 12C1.25 6.06294 6.06294 1.25 12 1.25ZM17.0303 8.96973C16.7374 8.67684 16.2626 8.67684 15.9697 8.96973L11 13.9395L9.03028 11.9697C8.73738 11.6768 8.26262 11.6768 7.96973 11.9697C7.67684 12.2626 7.67684 12.7374 7.96973 13.0303L10.4697 15.5303C10.6104 15.6709 10.8011 15.75 11 15.75C11.1989 15.75 11.3896 15.6709 11.5303 15.5303L17.0303 10.0303C17.3232 9.73738 17.3232 9.26262 17.0303 8.96973Z" fill="white"/>
</svg>
