<svg width="24" height="24" viewBox="0 0 24 24" fill="none" xmlns="http://www.w3.org/2000/svg">
<path d="M2.5 7L21.5 7M16.2998 2.5L18.9998 7M10.5 2L13.5 7M5.5 2.5L8 7M7.5 17C7.5 17.2761 7.27614 17.5 7 17.5C6.72386 17.5 6.5 17.2761 6.5 17M7.5 17C7.5 16.7239 7.27614 16.5 7 16.5C6.72386 16.5 6.5 16.7239 6.5 17M7.5 17L6.5 17M10 22L14 22C16.8003 22 18.2004 22 19.27 21.455C20.2108 20.9757 20.9757 20.2108 21.455 19.27C22 18.2004 22 16.8003 22 14L22 10C22 7.19974 22 5.79961 21.455 4.73005C20.9757 3.78924 20.2108 3.02434 19.27 2.54497C18.2004 2 16.8003 2 14 2L10 2C7.19974 2 5.79961 2 4.73005 2.54497C3.78924 3.02433 3.02434 3.78924 2.54497 4.73005C2 5.79961 2 7.19974 2 10L2 14C2 16.8003 2 18.2004 2.54497 19.27C3.02434 20.2108 3.78924 20.9757 4.73005 21.455C5.79961 22 7.19974 22 10 22Z" stroke="#71717A" stroke-width="1.5" stroke-linecap="round" stroke-linejoin="round"/>
</svg>
